<?xml version="1.0" encoding="UTF-8" standalone="no"?>
<!-- Created with Inkscape (http://www.inkscape.org/) -->

<svg
   xmlns:dc="http://purl.org/dc/elements/1.1/"
   xmlns:cc="http://creativecommons.org/ns#"
   xmlns:rdf="http://www.w3.org/1999/02/22-rdf-syntax-ns#"
   xmlns:svg="http://www.w3.org/2000/svg"
   xmlns="http://www.w3.org/2000/svg"
   xmlns:sodipodi="http://sodipodi.sourceforge.net/DTD/sodipodi-0.dtd"
   xmlns:inkscape="http://www.inkscape.org/namespaces/inkscape"
   version="1.1"
   id="svg2"
   width="307.89645"
   height="281.64896"
   viewBox="0 0 307.89645 281.64896"
   sodipodi:docname="nota.svg"
   inkscape:version="0.92.4 5da689c313, 2019-01-14">
  <metadata
     id="metadata8">
    <rdf:RDF>
      <cc:Work
         rdf:about="">
        <dc:format>image/svg+xml</dc:format>
        <dc:type
           rdf:resource="http://purl.org/dc/dcmitype/StillImage" />
        <dc:title></dc:title>
      </cc:Work>
    </rdf:RDF>
  </metadata>
  <defs
     id="defs6" />
  <sodipodi:namedview
     pagecolor="#ffffff"
     bordercolor="#666666"
     borderopacity="1"
     objecttolerance="10"
     gridtolerance="10"
     guidetolerance="10"
     inkscape:pageopacity="0"
     inkscape:pageshadow="2"
     inkscape:window-width="941"
     inkscape:window-height="1024"
     id="namedview4"
     showgrid="false"
     fit-margin-top="0"
     fit-margin-left="0"
     fit-margin-right="0"
     fit-margin-bottom="0"
     units="mm"
     inkscape:zoom="1.18"
     inkscape:cx="164.19221"
     inkscape:cy="91.92062"
     inkscape:window-x="965"
     inkscape:window-y="10"
     inkscape:window-maximized="0"
     inkscape:current-layer="svg2" />
  <path
     style="fill:#000000"
     d="m 51.404597,280.85822 c -20.992769,-3.02737 -40.584369,-14.44323 -47.9210892,-27.9232 -4.03628997,-7.41599 -4.59098,-16.29656 -1.52829,-24.46765 4.6693,-12.45745 20.8864602,-24.36141 40.4493792,-29.69126 11.65013,-3.17404 37.40712,-3.16563 49,0.016 7.70019,2.11329 21.574153,8.33233 26.250003,11.76663 l 2.25,1.65257 v -69.61568 c 0,0 0,-46.410463 0,-69.615693 0,-4.67086 0,-9.34171 0,-14.01257 0,-2.66667 0,-5.33333 0,-8.000001 0,-2.666667 0,-5.333333 0,-8 0,-4.670856 0,-9.341713 0,-14.012569 0,-4.831238 0,-14.493714 0,-14.493714 0,-7.9715429 0.3375,-14.47901488 0.75,-14.461045876057 0.4125,0.01796999606 4.8,6.645392976057 9.75,14.727613876057 36.88947,60.232076 63.30554,89.745209 82.2222,91.862009 6.09986,0.68258 11.14439,-1.11883 22.7778,-8.133983 11.19004,-6.74779 16.32943,-8.59649 24.07662,-8.66063 12.98363,-0.10751 25.12052,9.09535 41.77001,31.672323 3.6504,4.95 6.64076,9.31788 6.64523,9.7064 0.004,0.38853 -3.47936,-1.79806 -7.74186,-4.85908 -13.17014,-9.45785 -24.42617,-14.29268 -36.93668,-15.86551 -2.85267,-0.35863 -5.90576,-0.24965 -6.78464,0.2422 -1.29963,0.72731 -0.6774,1.49077 3.33285,4.08932 14.16804,9.18058 31.14884,35.21342 42.12763,64.58484 6.72924,18.00261 6.27616,18.59942 -3.4936,4.60183 -16.02045,-22.95327 -24.11879,-31.74843 -33.70664,-36.60696 -9.55574,-4.84226 -16.66218,-4.25154 -33.60649,2.79353 -12.05132,5.01068 -19.13889,6.81343 -26.78719,6.81343 -13.43314,0 -25.89376,-6.39496 -39.91455,-20.48469 -7.75592,-7.79405 -19.84255,-23.45458 -26.44561,-34.26531 -1.76364,-2.887503 -3.39303,-5.250003 -3.62085,-5.250003 -0.22783,0 -0.41423,28.800003 -0.41423,64.000003 v 64 14 c 0,0.82976 0.10448,1.66612 0,2.48927 -0.33592,2.64669 -1.21026,5.20148 -1.9995,7.75 -0.57809,1.86668 -0.92585,3.87828 -2,5.51073 -3.81011,5.79043 -9.58832,10.10555 -15.14436,14.25 -1.29142,0.96332 -2.66061,1.88878 -4.17807,2.43012 -18.815113,6.71212 -38.850763,12.39214 -59.178073,9.46073 z"
     id="path819"
     inkscape:connector-curvature="0"
     sodipodi:nodetypes="ssssssccaaaaascssscscsccssssssscsscaaaaaas" />
</svg>
